<svg xmlns="http://www.w3.org/2000/svg" xmlns:xlink="http://www.w3.org/1999/xlink" viewBox="0 0 430 430" width="430" height="430" preserveAspectRatio="xMidYMid meet" style="width: 100%; height: 100%; transform: translate3d(0px, 0px, 0px); content-visibility: visible;"><defs><clipPath id="__lottie_element_53"><rect width="430" height="430" x="0" y="0"/></clipPath><clipPath id="__lottie_element_55"><path d="M0,0 L430,0 L430,430 L0,430z"/></clipPath></defs><g clip-path="url(#__lottie_element_53)"><g clip-path="url(#__lottie_element_55)" transform="matrix(1,0,0,1,0,0)" opacity="1" style="display: block;"><g transform="matrix(0.7071067690849304,-0.7071067690849304,0.7071067690849304,0.7071067690849304,211.443603515625,204.69808959960938)" opacity="1" style="display: none;"><g opacity="1" transform="matrix(1,0,0,1,0,0)"><path stroke-linecap="round" stroke-linejoin="round" fill-opacity="0" class="secondary" stroke="rgb(255,255,255)" stroke-opacity="1" stroke-width="12" d=" M-37.39119338989258,21.478126525878906 C-37.39119338989258,21.478126525878906 112.91613006591797,21.006925582885742 112.91613006591797,21.006925582885742 C112.91613006591797,21.006925582885742 112.91613006591797,23.92873191833496 112.91613006591797,23.92873191833496 C112.91613006591797,23.92873191833496 144.33302307128906,23.92873191833496 144.33302307128906,23.92873191833496 C144.33302307128906,23.92873191833496 144.33302307128906,22.113136291503906 144.33302307128906,22.113136291503906 C144.33302307128906,22.113136291503906 175.75003051757812,22.113136291503906 175.75003051757812,22.113136291503906 C175.75003051757812,22.113136291503906 175.75003051757812,23.92873191833496 175.75003051757812,23.92873191833496 C175.75003051757812,23.92873191833496 207.1661376953125,23.92873191833496 207.1661376953125,23.92873191833496 C207.1661376953125,23.92873191833496 207.1661376953125,21.006925582885742 207.1661376953125,21.006925582885742 C207.1661376953125,21.006925582885742 220.13702392578125,20.99968719482422 220.13702392578125,20.99968719482422 C226.27203369140625,20.99968719482422 231.131591796875,16.926149368286133 231.131591796875,10.791150093078613 C231.131591796875,10.791150093078613 231.24403381347656,5.671505928039551 231.24403381347656,5.671505928039551 C231.24403381347656,-0.46349403262138367 226.27113342285156,-5.436493873596191 220.13702392578125,-5.436493873596191 C220.13702392578125,-5.436493873596191 -37.39119338989258,-4.9580559730529785 -37.39119338989258,-4.9580559730529785"/></g></g><g transform="matrix(0.7071067690849304,-0.7071067690849304,0.7071067690849304,0.7071067690849304,211.443603515625,204.69808959960938)" opacity="1" style="display: none;"><g opacity="1" transform="matrix(1,0,0,1,0,0)"><path stroke-linecap="round" stroke-linejoin="round" fill-opacity="0" class="primary" stroke="rgb(255,255,255)" stroke-opacity="1" stroke-width="12" d=" M-68.90599822998047,-3.6590988636016846 C-68.90599822998047,-3.6590988636016846 -68.90599822998047,18.715028762817383 -68.90599822998047,18.715028762817383 M-220.875,-3.6434149742126465 C-220.875,-3.6434149742126465 -220.875,18.7181453704834 -220.875,18.7181453704834 M-68.88597106933594,18.834911346435547 C-68.88597106933594,23.151704788208008 -102.89507293701172,26.65013885498047 -144.8480682373047,26.65013885498047 C-186.8010711669922,26.65013885498047 -220.81097412109375,23.151704788208008 -220.81097412109375,18.834911346435547 C-220.81097412109375,14.518118858337402 -186.8010711669922,11.018885612487793 -144.8480682373047,11.018885612487793 C-102.89507293701172,11.018885612487793 -68.88597106933594,14.518118858337402 -68.88597106933594,18.834911346435547z M-99.60507202148438,18.835012435913086 C-99.60507202148438,21.405609130859375 -119.86106872558594,23.489768981933594 -144.8480682373047,23.489768981933594 C-169.83506774902344,23.489768981933594 -190.0919647216797,21.405508041381836 -190.0919647216797,18.834911346435547 C-190.0919647216797,16.264314651489258 -169.83506774902344,14.179255485534668 -144.8480682373047,14.179255485534668 C-119.86106872558594,14.179255485534668 -99.60507202148438,16.264415740966797 -99.60507202148438,18.835012435913086z M-76.03853607177734,22.516170501708984 C-76.03853607177734,22.516170501708984 -48.017635345458984,22.699169158935547 -48.017635345458984,22.699169158935547 C-41.094635009765625,22.699169158935547 -35.481632232666016,17.08517074584961 -35.481632232666016,10.162169456481934 C-35.481632232666016,10.162169456481934 -35.481632232666016,10.162169456481934 -35.481632232666016,10.162169456481934 C-35.481632232666016,10.162169456481934 -35.665122985839844,5.2127838134765625 -35.665122985839844,5.2127838134765625 C-35.665122985839844,5.2127838134765625 -35.665122985839844,5.2127838134765625 -35.665122985839844,5.2127838134765625 C-35.665122985839844,-1.7102160453796387 -41.27812576293945,-7.323215961456299 -48.20112609863281,-7.323215961456299 C-48.20112609863281,-7.323215961456299 -76.22112274169922,-7.505216121673584 -76.22112274169922,-7.505216121673584"/></g><g opacity="1" transform="matrix(1,0,0,1,0,0)"><path stroke-linecap="round" stroke-linejoin="round" fill-opacity="0" class="primary" stroke="rgb(255,255,255)" stroke-opacity="1" stroke-width="12" d=" M-68.97681427001953,-3.6516499519348145 C-68.97681427001953,-7.968442440032959 -102.98591613769531,-11.467676162719727 -144.9389190673828,-11.467676162719727 C-186.89199829101562,-11.468000411987305 -220.9010009765625,-7.968999862670898 -220.90199279785156,-3.6519999504089355"/></g></g><g transform="matrix(0.7071067690849304,-0.7071067690849304,0.7071067690849304,0.7071067690849304,211.443603515625,204.69808959960938)" opacity="1" style="display: none;"><g opacity="1" transform="matrix(1,0,0,1,0,0)"><path stroke-linecap="round" stroke-linejoin="round" fill-opacity="0" class="secondary" stroke="rgb(8,168,138)" stroke-opacity="1" stroke-width="12" d=" M-35.37099838256836,25.871999740600586 C-35.37099838256836,25.871999740600586 112.8010025024414,25.569000244140625 112.8010025024414,25.569000244140625 C112.8010025024414,25.569000244140625 112.8010025024414,54.604000091552734 112.8010025024414,54.604000091552734 C112.8010025024414,54.604000091552734 144.2169952392578,54.604000091552734 144.2169952392578,54.604000091552734 C144.2169952392578,54.604000091552734 144.2169952392578,36.5629997253418 144.2169952392578,36.5629997253418 C144.2169952392578,36.5629997253418 175.63400268554688,36.5629997253418 175.63400268554688,36.5629997253418 C175.63400268554688,36.5629997253418 175.63400268554688,54.604000091552734 175.63400268554688,54.604000091552734 C175.63400268554688,54.604000091552734 207.05099487304688,54.604000091552734 207.05099487304688,54.604000091552734 C207.05099487304688,54.604000091552734 207.05099487304688,25.569000244140625 207.05099487304688,25.569000244140625 C207.05099487304688,25.569000244140625 220.02099609375,25.496999740600586 220.02099609375,25.496999740600586 C226.156005859375,25.496999740600586 231.1280059814453,20.52400016784668 231.1280059814453,14.388999938964844 C231.1280059814453,14.388999938964844 231.1280059814453,-0.17499999701976776 231.1280059814453,-0.17499999701976776 C231.1280059814453,-6.309999942779541 226.156005859375,-11.282999992370605 220.02099609375,-11.282999992370605 C220.02099609375,-11.282999992370605 -35.37099838256836,-10.907999992370605 -35.37099838256836,-10.907999992370605"/></g></g><g transform="matrix(0.7071067690849304,-0.7071067690849304,0.7071067690849304,0.7071067690849304,211.443603515625,204.69808959960938)" opacity="1" style="display: none;"><g opacity="1" transform="matrix(1,0,0,1,0,0)"><path stroke-linecap="round" stroke-linejoin="round" fill-opacity="0" class="primary" stroke="rgb(255,255,255)" stroke-opacity="1" stroke-width="12" d=" M-68.90599822998047,7.218999862670898 C-68.90599822998047,7.218999862670898 -68.90599822998047,7.218999862670898 -68.90599822998047,7.218999862670898 M-220.875,7.375 C-220.875,7.375 -220.875,7.25 -220.875,7.25 M-69.00199890136719,7.142000198364258 C-69.00199890136719,-34.59199905395508 -103.01200103759766,-68.42500305175781 -144.96499633789062,-68.42500305175781 C-186.91799926757812,-68.42500305175781 -220.927001953125,-34.59199905395508 -220.927001953125,7.142000198364258 C-220.927001953125,48.875999450683594 -186.91799926757812,82.70800018310547 -144.96499633789062,82.70800018310547 C-103.01200103759766,82.70800018310547 -69.00199890136719,48.875999450683594 -69.00199890136719,7.142000198364258z M-99.72200012207031,7.142000198364258 C-99.72200012207031,-17.71500015258789 -119.97799682617188,-37.8650016784668 -144.96499633789062,-37.8650016784668 C-169.95199584960938,-37.8650016784668 -190.20799255371094,-17.71500015258789 -190.20799255371094,7.142000198364258 C-190.20799255371094,31.999000549316406 -169.95199584960938,52.14799880981445 -144.96499633789062,52.14799880981445 C-119.97799682617188,52.14799880981445 -99.72200012207031,31.999000549316406 -99.72200012207031,7.142000198364258z M-69.00199890136719,7.142000198364258 C-69.00199890136719,-34.59199905395508 -103.01200103759766,-68.42500305175781 -144.96499633789062,-68.42500305175781 C-186.91799926757812,-68.42500305175781 -220.927001953125,-34.59199905395508 -220.927001953125,7.142000198364258 C-220.927001953125,48.875999450683594 -186.91799926757812,82.70800018310547 -144.96499633789062,82.70800018310547 C-103.01200103759766,82.70800018310547 -69.00199890136719,48.875999450683594 -69.00199890136719,7.142000198364258z M-99.72200012207031,7.142000198364258 C-99.72200012207031,-17.71500015258789 -119.97799682617188,-37.8650016784668 -144.96499633789062,-37.8650016784668 C-169.95199584960938,-37.8650016784668 -190.20799255371094,-17.71500015258789 -190.20799255371094,7.142000198364258 C-190.20799255371094,31.999000549316406 -169.95199584960938,52.14799880981445 -144.96499633789062,52.14799880981445 C-119.97799682617188,52.14799880981445 -99.72200012207031,31.999000549316406 -99.72200012207031,7.142000198364258z M-75.927001953125,44.553001403808594 C-75.927001953125,44.553001403808594 -47.90700149536133,44.736000061035156 -47.90700149536133,44.736000061035156 C-40.98400115966797,44.736000061035156 -35.37099838256836,39.12200164794922 -35.37099838256836,32.19900131225586 C-35.37099838256836,32.19900131225586 -35.37099838256836,32.19900131225586 -35.37099838256836,32.19900131225586 C-35.37099838256836,32.19900131225586 -35.37099838256836,-17.236000061035156 -35.37099838256836,-17.236000061035156 C-35.37099838256836,-17.236000061035156 -35.37099838256836,-17.236000061035156 -35.37099838256836,-17.236000061035156 C-35.37099838256836,-24.159000396728516 -40.98400115966797,-29.77199935913086 -47.90700149536133,-29.77199935913086 C-47.90700149536133,-29.77199935913086 -75.927001953125,-29.95400047302246 -75.927001953125,-29.95400047302246"/></g></g><g transform="matrix(0.7071067690849304,-0.7071067690849304,-0.7071067690849304,-0.7071067690849304,221.54391479492188,216.44540405273438)" opacity="1" style="display: block;"><g opacity="1" transform="matrix(1,0,0,1,0,0)"><path stroke-linecap="round" stroke-linejoin="round" fill-opacity="0" class="secondary" stroke="rgb(255,255,255)" stroke-opacity="1" stroke-width="12" d=" M-35.7197380065918,25.113506317138672 C-35.7197380065918,25.113506317138672 112.82087707519531,24.781471252441406 112.82087707519531,24.781471252441406 C112.82087707519531,24.781471252441406 112.82087707519531,49.308677673339844 112.82087707519531,49.308677673339844 C112.82087707519531,49.308677673339844 144.23703002929688,49.308677673339844 144.23703002929688,49.308677673339844 C144.23703002929688,49.308677673339844 144.23703002929688,34.06858825683594 144.23703002929688,34.06858825683594 C144.23703002929688,34.06858825683594 175.65402221679688,34.06858825683594 175.65402221679688,34.06858825683594 C175.65402221679688,34.06858825683594 175.65402221679688,49.308677673339844 175.65402221679688,49.308677673339844 C175.65402221679688,49.308677673339844 207.0708770751953,49.308677673339844 207.0708770751953,49.308677673339844 C207.0708770751953,49.308677673339844 207.0708770751953,24.781471252441406 207.0708770751953,24.781471252441406 C207.0708770751953,24.781471252441406 220.04103088378906,24.72064971923828 220.04103088378906,24.72064971923828 C226.176025390625,24.72064971923828 231.1286163330078,19.90291976928711 231.1286163330078,13.76792049407959 C231.1286163330078,13.76792049407959 231.1480255126953,0.8342541456222534 231.1480255126953,0.8342541456222534 C231.1480255126953,-5.300745964050293 226.17587280273438,-10.2737455368042 220.04103088378906,-10.2737455368042 C220.04103088378906,-10.2737455368042 -35.7197380065918,-9.880889892578125 -35.7197380065918,-9.880889892578125"/></g></g><g transform="matrix(0.7071067690849304,-0.7071067690849304,-0.7071067690849304,-0.7071067690849304,221.54391479492188,216.44540405273438)" opacity="1" style="display: block;"><g opacity="1" transform="matrix(1,0,0,1,0,0)"><path stroke-linecap="round" stroke-linejoin="round" fill-opacity="0" class="primary" stroke="(8,168,138)" stroke-opacity="1" stroke-width="12" d=" M-68.90599822998047,5.341166019439697 C-68.90599822998047,5.341166019439697 -68.90599822998047,9.20350456237793 -68.90599822998047,9.20350456237793 M-220.875,5.472944259643555 C-220.875,5.472944259643555 -220.875,9.229690551757812 -220.875,9.229690551757812 M-99.75678253173828,5.262768745422363 C-99.75678253173828,-15.724595069885254 -120.01277923583984,-32.73767852783203 -144.99978637695312,-32.73767852783203 C-169.98678588867188,-32.73767852783203 -190.24278259277344,-15.724595069885254 -190.24278259277344,5.262768745422363 C-190.24278259277344,26.250133514404297 -169.98678588867188,43.26237106323242 -144.99978637695312,43.26237106323242 C-120.01277923583984,43.26237106323242 -99.75678253173828,26.250133514404297 -99.75678253173828,5.262768745422363z M-75.94625091552734,40.7488899230957 C-75.94625091552734,40.7488899230957 -47.92609786987305,40.931888580322266 -47.92609786987305,40.931888580322266 C-41.00309753417969,40.931888580322266 -35.390098571777344,35.31788635253906 -35.390098571777344,28.394887924194336 C-35.390098571777344,28.394887924194336 -35.390098571777344,28.394887924194336 -35.390098571777344,28.394887924194336 C-35.390098571777344,28.394887924194336 -35.42177200317383,-13.360774993896484 -35.42177200317383,-13.360774993896484 C-35.42177200317383,-13.360774993896484 -35.42177200317383,-13.360774993896484 -35.42177200317383,-13.360774993896484 C-35.42177200317383,-20.283775329589844 -41.03477478027344,-25.896774291992188 -47.9577751159668,-25.896774291992188 C-47.9577751159668,-25.896774291992188 -75.97777557373047,-26.07877540588379 -75.97777557373047,-26.07877540588379"/></g><g opacity="1" transform="matrix(1,0,0,1,0,0)"><path stroke-linecap="round" stroke-linejoin="round" fill-opacity="0" class="primary" stroke="rgb(8,168,138)" stroke-opacity="1" stroke-width="12" d=" M-68.99765014648438,5.278761386871338 C-68.99765014648438,-29.958126068115234 -103.00749969482422,-58.52421569824219 -144.9604949951172,-58.52421569824219 C-186.9134979248047,-58.52421569824219 -220.9226531982422,-29.958126068115234 -220.9226531982422,5.278761386871338 C-220.9226531982422,40.515647888183594 -186.9134979248047,69.08074188232422 -144.9604949951172,69.08074188232422 C-103.00749969482422,69.08074188232422 -68.99765014648438,40.515647888183594 -68.99765014648438,5.278761386871338z"/></g><g opacity="1" transform="matrix(1,0,0,1,0,0)"><path stroke-linecap="round" stroke-linejoin="round" fill-opacity="0" class="primary" stroke="rgb(8,168,138)" stroke-opacity="1" stroke-width="12" d=" M-68.98197174072266,9.160508155822754 C-68.98197174072266,44.397396087646484 -102.99181365966797,72.96248626708984 -144.94480895996094,72.96248626708984 C-186.89781188964844,72.96248626708984 -220.90696716308594,44.397396087646484 -220.90696716308594,9.160508155822754 C-220.90699768066406,9.16100025177002 -220.90699768066406,9.16100025177002 -220.90699768066406,9.16100025177002"/></g></g></g></g></svg>